<?xml version="1.0" encoding="utf-8"?>
<!-- Generator: Adobe Illustrator 17.0.2, SVG Export Plug-In . SVG Version: 6.00 Build 0)  -->
<!DOCTYPE svg PUBLIC "-//W3C//DTD SVG 1.1//EN" "http://www.w3.org/Graphics/SVG/1.1/DTD/svg11.dtd">
<svg version="1.1" id="Layer_2" xmlns="http://www.w3.org/2000/svg" xmlns:xlink="http://www.w3.org/1999/xlink" x="0px" y="0px"
	 width="147.056px" height="77.494px" viewBox="0 0 147.056 77.494" enable-background="new 0 0 147.056 77.494"
	 xml:space="preserve">
<g>
	<path fill="#B3A136" d="M0,77.494h138.766V0H0V77.494z M131.965,70.695H6.799V6.799h125.166V70.695z"/>
	<path fill="#B3A136" d="M75.027,22.76c0,0-5.396,20.352-5.841,22.521L63.304,22.76H52.159v31.236h7.295V31.033l6.369,22.963h6.729
		c0,0,6.214-22.244,6.367-22.916v22.916h7.324V22.76H75.027z"/>
	<path fill="#B3A136" d="M48.26,49.02V32.734c0-3.316-0.061-6.205-3.688-8.414c-2.704-1.602-6.266-1.967-9.216-1.967
		c-1.966,0-9.278,0-12.227,5.346c-0.964,1.738-1.103,3.01-1.224,4.5h-0.002h0.002v0.006l7.553-0.006h-0.001
		c0.012-0.689,0.103-1.393,0.736-2.166c0.738-0.982,2.395-1.969,5.469-1.969c6.063,0,5.168,6.111,5.168,6.111
		s-3.027,0.043-9.47,0.834c-2.977,0.367-7.68,1.533-9.894,5.959c-0.613,1.23-0.982,2.646-0.982,4.182
		c0,5.283,4.178,9.584,11.122,9.584c4.239,0,7.497-1.779,9.094-3.137c0,0.432,0.125,1.662,0.187,2.398h7.495
		C48.26,49.02,48.26,51.355,48.26,49.02 M40.889,42.074c0,0.926,0,1.846-0.431,2.764c-0.799,1.846-3.442,3.566-7.192,3.566
		c-2.948,0-4.977-1.228-4.977-3.625c0-3.256,3.054-3.984,5.702-4.316c3.314-0.414,6.898-0.539,6.898-0.539L40.889,42.074z"/>
	<path fill="#B3A136" d="M118.608,41.863l-7.151,0.018c-0.211,0.863-1.7,6.494-7.274,6.494c-0.082,0-0.978,0-1.059-0.004
		c-4.094-0.127-7.456-3.533-7.456-10.256c0-5.158,2.597-9.799,7.518-9.912c0.062,0,0.936,0,0.997,0c5.098,0,6.883,5.332,6.982,5.658
		l7.146,0.023c-1.385-6.66-6.59-12.096-14.483-12.096c-8.849,0-15.132,7.297-15.132,16.545c0,10.576,6.683,16.592,14.956,16.592
		C112.865,54.926,117.644,47.879,118.608,41.863"/>
	<g>
		<path fill="#B3A136" d="M140.912,3.002c0-1.878,1.48-2.96,3.072-2.96c1.592,0,3.071,1.082,3.071,2.96s-1.479,2.96-3.071,2.96
			C142.393,5.962,140.912,4.879,140.912,3.002z M146.068,3.002c0-1.289-0.954-2.196-2.084-2.196c-1.146,0-2.069,0.907-2.069,2.196
			c0,1.305,0.923,2.212,2.069,2.212C145.114,5.213,146.068,4.306,146.068,3.002z M143.555,4.609h-0.78V1.394h1.21
			c0.844,0,1.352,0.223,1.352,0.986c0,0.589-0.35,0.812-0.907,0.844l0.811,1.385h-0.748l-0.731-1.337h-0.207L143.555,4.609
			L143.555,4.609z M144.127,2.699c0.271,0,0.43-0.064,0.43-0.398c0-0.318-0.35-0.334-0.588-0.334h-0.414v0.732H144.127z"/>
	</g>
</g>
</svg>
